<svg width="3618" height="856" viewBox="0 0 3618 856" fill="none" xmlns="http://www.w3.org/2000/svg">
<path d="M168.249 0.55251C109.991 7.222 61.0545 36.7124 30.4392 83.5595C25.2964 91.4344 16.9395 107.907 13.0824 117.711C1.35055 147.522 -2.74757 184.888 1.83269 219.923C10.0289 283.001 46.7513 335.715 101.071 362.312C119.553 371.392 137.794 377.178 158.043 380.392C171.141 382.481 212.524 382.481 227.149 380.392C248.604 377.339 266.925 372.919 284.924 366.491C295.853 362.553 313.451 354.357 321.165 349.696L325.986 346.804V264.439V182.156H264.916H203.846V198.628V215.101H246.032H288.219L288.058 270.707L287.817 326.313L281.389 329.768C258.568 341.982 225.06 349.295 191.552 349.295C157.963 349.295 131.446 341.42 104.527 323.5C94.402 316.751 78.1702 301.081 71.099 291.439C54.7868 269.02 44.5014 242.663 40.6443 213.494C39.1979 202.405 39.3586 178.138 41.0461 166.486C48.7602 112.487 78.8131 69.417 123.892 47.5604C141.088 39.2034 156.838 35.1053 178.373 33.4178C198.542 31.8107 222.006 34.3821 240.006 40.0873C257.041 45.5515 276.487 56.8012 288.862 68.4527C292.397 71.7473 295.612 74.4794 296.013 74.4794C296.978 74.4794 321.165 50.1317 321.165 49.0871C321.165 48.605 318.834 46.1943 315.942 43.7033C290.148 20.8824 261.139 7.54342 225.301 2.07926C213.247 0.231089 179.177 -0.652819 168.249 0.55251Z" fill="white"/>
<path d="M356.28 1.91876C355.959 2.15982 355.718 194.37 355.718 429.007V855.533H368.173H380.628V428.445V1.35627H368.735C362.146 1.35627 356.521 1.59733 356.28 1.91876Z" fill="white"/>
<path d="M414.779 2.32123C414.538 2.88372 414.457 195.013 414.538 429.249L414.779 855.132L427.073 855.373L439.287 855.614V428.445V1.35697H427.234C418.314 1.35697 415.02 1.59803 414.779 2.32123Z" fill="white"/>
<path d="M473.84 428.445V855.614L486.134 855.373L498.348 855.132V428.445V1.75874L486.134 1.51768L473.84 1.27661V428.445Z" fill="white"/>
<path d="M534.669 1.91876C534.348 2.15982 534.106 194.37 534.106 429.007V855.533H546.562H559.017V428.445V1.35627H547.124C540.535 1.35627 534.91 1.59733 534.669 1.91876Z" fill="white"/>
<path d="M594.373 227.959V260.904H598.793H603.212L603.292 233.744V206.664L613.98 233.583L624.667 260.503H627.801H630.854L641.381 233.985L651.827 207.548L652.068 234.226L652.229 260.904H657.05H661.872L661.711 228.119L661.47 195.415H654.398H647.247L637.926 219.682C632.783 233.101 628.363 244.03 628.122 244.03C627.801 244.03 623.462 233.423 618.48 220.486C613.498 207.629 608.998 196.54 608.596 195.977C608.114 195.334 605.542 195.013 601.123 195.013H594.373V227.959Z" fill="white"/>
<path d="M677.139 228.039V261.065L691.844 260.744C708.558 260.342 713.218 259.137 718.361 253.994C722.057 250.298 723.182 246.762 722.78 240.414C722.379 234.066 719.727 230.209 713.861 227.638L709.843 225.87L712.415 224.745C722.941 220.406 722.7 203.531 712.013 197.987C708.075 195.978 700.683 195.013 688.629 195.013H677.139V228.039ZM705.745 204.897C709.12 206.665 710.165 208.111 710.647 211.727C711.209 215.665 709.281 219.441 705.906 221.209C704.299 222.093 700.442 222.656 695.058 222.977L686.781 223.379V213.093V202.808L695.058 203.21C700.201 203.531 704.299 204.174 705.745 204.897ZM708.236 232.7C712.254 234.548 713.62 236.798 713.62 241.78C713.62 244.753 713.138 246.119 711.611 247.726C708.156 251.423 705.504 252.307 695.861 252.708L686.781 253.11V242.102V231.173H695.861C702.933 231.173 705.584 231.495 708.236 232.7Z" fill="white"/>
<path d="M593.167 352.67C592.926 353.232 592.846 466.533 592.926 604.423L593.167 855.132H663.478C740.378 855.132 737.968 855.212 757.896 850.23C791.886 841.632 818.484 820.258 834.233 788.839C844.68 768.107 848.858 745.527 848.055 714.671C847.572 695.385 845.805 683.895 841.064 669.752C834.555 650.306 825.876 635.521 813.421 622.985C804.904 614.307 797.109 608.602 786.422 603.218C776.136 598.075 769.949 595.986 754.441 592.29C747.289 590.602 741.664 588.995 741.985 588.674C742.387 588.432 747.369 587.227 753.075 586.022C761.833 584.254 765.047 583.129 773.163 579.111C798.716 566.415 815.912 546.166 825.394 517.639C833.992 492.086 833.912 452.23 825.314 426.597C820.171 411.088 811.734 397.669 799.761 385.776C782.083 368.259 762.315 359.179 729.771 353.634C722.781 352.429 713.299 352.188 657.612 351.947C605.301 351.706 593.489 351.786 593.167 352.67ZM721.334 388.187C741.905 392.205 755.324 398.633 767.378 410.285C784.252 426.516 792.85 450.061 792.85 480.033C792.85 509.202 784.252 532.103 766.414 550.424C755.646 561.594 742.628 568.906 725.754 573.326L717.718 575.415L674.969 575.736L632.14 575.977V481.078V386.098L673.362 386.5C707.272 386.821 715.709 387.062 721.334 388.187ZM732.584 611.012C752.914 616.396 766.735 624.271 780.074 638.172C786.422 644.762 790.842 651.431 796.225 662.359C803.939 678.27 807.314 694.903 807.314 717.322C807.314 748.982 798.797 774.053 782.083 791.812C768.181 806.517 752.833 814.633 730.173 819.052C724.468 820.177 716.111 820.418 677.782 820.74L632.14 821.061V714.51V607.959L677.782 608.2L723.343 608.521L732.584 611.012Z" fill="white"/>
<path d="M49.5637 606.834V855.533H62.0188H74.4739V615.432V375.41L67.4026 370.83C63.5455 368.259 58.0814 364.402 55.3493 362.152C52.6172 359.982 50.2066 358.134 49.9655 358.134C49.7244 358.134 49.5637 470.069 49.5637 606.834Z" fill="white"/>
<path d="M313.129 381.035C312.004 381.598 306.861 383.847 301.719 385.937L292.237 389.794V622.663V855.533H304.692H317.147V617.681C317.147 427.882 316.906 379.83 316.183 379.83C315.62 379.91 314.254 380.392 313.129 381.035Z" fill="white"/>
<path d="M110.634 624.431V855.533H123.089H135.544V628.128C135.544 446.846 135.303 400.642 134.58 400.401C131.526 399.437 113.205 394.053 112.08 393.731C110.714 393.33 110.634 404.66 110.634 624.431Z" fill="white"/>
<path d="M244.827 402.009C239.283 402.973 234.301 403.857 233.819 403.857C233.015 403.937 232.774 449.659 232.774 629.735V855.614L245.068 855.373L257.282 855.132L257.523 627.486C257.684 411.089 257.604 399.919 256.318 400C255.514 400.08 250.372 400.964 244.827 402.009Z" fill="white"/>
<path d="M172.507 630.941V855.614L184.802 855.373L197.016 855.132V630.941V406.75L184.802 406.508L172.507 406.267V630.941Z" fill="white"/>
<path d="M1152.79 511.251C1135.24 513.758 1119.66 518.235 1104.08 525.577C1085.45 534.352 1075.25 541.336 1059.84 555.842C1024.74 589.688 1006.84 634.1 1006.84 688.362C1006.84 726.327 1015.79 758.382 1034.06 786.14C1063.96 831.805 1108.38 854.907 1165.68 855.086C1198.45 855.086 1225.67 847.923 1247.88 833.417C1262.38 824.105 1283.52 802.078 1294.98 784.528L1304.11 770.381L1300.35 767.694C1296.59 765.187 1296.05 765.366 1290.86 771.992C1261.31 809.062 1243.04 823.03 1214.57 830.194C1200.78 833.775 1166.58 833.238 1151.89 829.477C1112.67 819.27 1082.41 789.363 1070.59 749.428C1065.93 734.027 1062.35 707.165 1062.35 687.645C1062.35 615.297 1085.45 562.289 1126.1 541.157C1133.09 537.575 1143.48 533.457 1149.38 531.845C1163.17 528.263 1193.8 528.263 1208.12 532.024C1242.15 540.799 1268.47 567.661 1283.52 609.208C1287.64 620.49 1288.89 622.281 1292.65 622.281C1296.23 622.281 1296.77 621.564 1296.05 617.266C1295.69 614.58 1293.9 591.121 1292.47 564.975C1289.07 509.281 1289.07 509.46 1284.23 509.46C1281.73 509.46 1279.76 511.788 1277.43 517.16C1272.95 527.368 1265.61 533.277 1258.45 532.203C1255.58 531.845 1246.63 528.442 1238.57 524.861C1211.35 512.683 1178.75 507.49 1152.79 511.251Z" fill="white"/>
<path d="M1479.25 511.43C1461.16 513.937 1435.56 522.712 1419.8 532.024C1402.43 542.232 1377.35 565.87 1365.89 583.241C1347.99 609.924 1339.93 636.428 1338.67 674.214C1336.7 730.983 1351.75 773.246 1386.49 808.525C1417.83 840.401 1453.28 855.086 1498.41 855.086C1542.83 855.086 1578.28 840.58 1609.62 809.42C1617.5 801.541 1627.53 790.08 1631.65 783.812C1670.15 726.685 1671.41 641.442 1634.51 584.495C1612.31 550.29 1577.21 524.324 1539.78 514.832C1522.95 510.534 1496.09 508.923 1479.25 511.43ZM1525.28 531.845C1576.67 545.276 1604.97 600.433 1604.97 687.108C1604.97 744.235 1593.33 782.379 1568.25 807.809C1548.56 827.866 1526.53 837.178 1498.41 837.178C1471.55 837.178 1454.18 830.015 1435.56 811.211C1412.1 787.572 1399.2 753.189 1395.26 704.658C1388.28 614.043 1418.18 546.709 1472.27 531.666C1483.91 528.442 1512.56 528.622 1525.28 531.845Z" fill="white"/>
<path d="M2780.28 511.609C2779.38 512.862 2750.91 578.406 2717.42 657.202C2683.75 735.997 2653.31 805.302 2649.73 811.211C2638.62 829.657 2635.94 831.626 2611.94 838.252C2610.69 838.611 2609.61 840.939 2609.61 843.446V847.923H2662.44H2715.27V843.446C2715.27 838.79 2714.19 838.252 2699.15 836.283C2688.94 835.029 2679.99 829.657 2677.66 823.568C2674.8 816.226 2677.12 808.167 2692.53 771.276L2707.03 736.893L2770.61 737.251L2834 737.788L2846.36 766.978C2862.12 804.406 2865.52 816.584 2862.12 824.642C2859.43 830.91 2848.86 836.999 2840.27 837.178C2832.75 837.178 2829.88 838.969 2829.88 843.625V847.923H2895.42H2960.79L2960.25 843.088C2959.71 838.611 2958.82 837.894 2951.12 836.82C2939.84 835.208 2928.38 828.224 2922.64 819.807C2913.69 806.376 2907.42 792.05 2848.68 651.829C2799.44 534.352 2788.87 510.176 2785.83 509.818C2783.68 509.46 2781.35 510.355 2780.28 511.609ZM2800.15 655.053C2814.48 689.436 2826.3 717.731 2826.3 718.268C2826.3 718.626 2801.41 718.985 2770.78 718.985C2740.34 718.985 2715.27 718.626 2715.27 718.268C2715.27 717.91 2727.09 690.332 2741.41 657.023C2755.74 623.534 2768.28 594.344 2769.35 591.837C2770.78 588.256 2771.32 587.897 2772.57 590.046C2773.29 591.479 2785.83 620.848 2800.15 655.053Z" fill="white"/>
<path d="M3139.69 510.713C3126.44 512.146 3104.77 516.981 3093.31 521.279C3055.52 535.427 3020.96 569.452 3000.72 612.252C2987.29 640.726 2984.96 652.187 2984.96 688.541C2984.96 717.552 2985.32 721.133 2989.98 735.997C3002.87 778.26 3031.17 813.539 3068.06 833.417C3095.82 848.281 3126.8 855.086 3166.73 855.086C3204.88 855.086 3233.53 848.997 3265.41 834.133L3282.78 825.896L3283.31 760.352C3283.85 700.539 3284.21 694.271 3287.07 689.794C3292.09 682.273 3300.51 677.796 3310.35 677.796C3318.59 677.796 3318.77 677.617 3318.77 672.423V667.051L3254.84 667.409L3190.73 667.946V672.423C3190.73 676.721 3191.45 676.9 3202.91 678.154C3217.59 679.587 3224.93 683.526 3229.95 693.018C3233.53 699.823 3233.71 702.688 3233.71 760.173V820.165L3222.43 825.717C3196.1 838.79 3159.57 841.655 3133.42 832.701C3106.02 823.568 3085.25 807.629 3069.67 783.991C3017.02 703.404 3037.26 575.003 3108.35 540.083C3126.44 531.129 3139.69 528.442 3163.87 528.442C3182.31 528.621 3187.33 529.338 3199.32 533.457C3232.81 544.739 3252.69 566.408 3270.24 610.282C3271.67 614.043 3273.29 615.297 3276.33 614.759C3280.99 614.043 3280.99 620.132 3275.79 556.021C3273.82 531.845 3272.21 511.43 3272.21 510.713C3272.21 509.818 3270.06 509.46 3267.38 509.818C3263.61 510.176 3262.18 511.43 3261.82 514.832C3260.93 523.07 3257.53 529.159 3253.41 530.233C3250.9 530.77 3238.54 527.726 3221.71 522.175C3187.68 511.072 3165.84 508.027 3139.69 510.713Z" fill="white"/>
<path d="M1683.22 517.877C1682.51 518.414 1681.97 520.921 1681.97 523.249C1681.97 527.189 1682.69 527.368 1694.15 527.368C1710.62 527.547 1719.94 531.845 1725.31 542.052L1729.43 549.753L1730.5 652.724C1731.22 719.88 1732.29 759.636 1733.73 767.157C1738.56 793.303 1746.98 809.062 1765.24 826.254C1779.75 839.685 1794.79 847.027 1817.36 851.683C1842.25 856.877 1889.53 855.802 1908.51 849.713C1928.21 843.446 1941.46 835.566 1955.07 821.956C1984.62 792.587 1988.2 773.067 1988.2 636.786C1988.38 551.007 1988.74 546.53 1996.62 537.755C2001.99 531.666 2013.27 527.368 2024.55 527.368C2034.76 527.368 2034.76 527.368 2034.76 521.995V516.623L1976.2 516.981L1917.46 517.518L1916.93 522.175C1916.39 526.831 1916.57 526.831 1930.54 527.726C1947.73 528.621 1955.43 532.561 1960.44 542.59C1963.84 549.574 1964.02 553.335 1964.02 650.038C1964.02 740.474 1963.67 751.756 1960.8 765.545C1959.01 773.962 1955.43 784.528 1952.92 789.363C1943.79 805.839 1922.12 821.956 1898.84 829.477C1887.02 833.238 1854.61 834.492 1841 831.984C1817.18 827.328 1795.33 809.778 1787.63 789.363C1779.57 767.694 1778.5 751.04 1779.03 645.919C1779.57 551.365 1779.75 547.783 1783.15 541.694C1788.35 532.74 1799.81 527.368 1813.95 527.368H1825.24V521.995V516.623H1754.86C1716 516.623 1683.76 517.16 1683.22 517.877Z" fill="white"/>
<path d="M2048.55 517.877C2047.83 518.414 2047.3 520.742 2047.3 522.891C2047.3 526.652 2048.37 527.01 2061.44 527.726C2078.46 528.622 2086.16 532.561 2091.17 542.59C2094.57 549.574 2094.75 553.872 2095.29 671.528C2095.65 738.504 2095.29 799.213 2094.75 806.197C2092.78 828.403 2084.37 836.283 2061.09 838.252C2048.19 839.506 2047.3 839.685 2047.3 843.625V847.923H2118.93H2190.56V843.625C2190.56 839.685 2189.67 839.506 2176.77 838.252C2154.75 836.462 2146.69 829.657 2144 810.137C2143.11 803.869 2142.21 775.037 2142.21 746.205V693.913H2159.76L2177.13 694.092L2232.65 770.918L2288.16 847.923H2332.39H2376.81V843.446C2376.81 838.432 2376.98 838.432 2361.58 835.566C2343.85 832.343 2330.6 824.642 2315.74 809.062C2305.17 797.959 2228.71 694.63 2226.74 688.899C2226.56 688.183 2232.11 685.676 2239.27 683.347C2246.43 681.019 2257.18 676.721 2263.09 673.498C2310.9 648.427 2320.4 584.674 2282.07 547.067C2262.01 527.368 2243.03 521.279 2193.25 518.414C2158.86 516.444 2050.34 515.907 2048.55 517.877ZM2209.37 541.874C2222.44 546.709 2237.3 560.498 2243.75 573.571C2248.4 583.062 2248.76 585.39 2248.76 605.268C2248.76 625.325 2248.4 627.295 2243.75 636.249C2229.78 662.753 2205.25 675.289 2164.24 677.259L2142.21 678.333V610.103V541.694L2146.33 540.799C2167.46 535.606 2194.14 536.143 2209.37 541.874Z" fill="white"/>
<path d="M2359.97 533.994C2359.43 543.664 2358.36 561.393 2357.82 573.571L2356.57 595.777L2361.76 595.061C2366.42 594.523 2366.96 593.807 2368.21 585.748C2370.72 568.198 2379.67 553.335 2392.56 545.813C2400.8 540.799 2401.52 540.799 2435.54 540.262L2469.93 539.545L2469.57 680.303C2469.03 819.986 2469.03 820.882 2465.27 825.896C2459.36 833.775 2452.02 836.999 2437.16 838.252C2424.26 839.506 2423.37 839.685 2423.37 843.625V847.923H2494.1H2564.84V843.625C2564.84 839.685 2563.95 839.327 2551.95 838.252C2535.47 836.82 2527.41 832.701 2522.76 823.568C2519.35 816.763 2519.17 812.465 2518.64 678.154L2518.1 539.904H2550.16C2586.15 539.904 2593.85 541.515 2605.31 551.365C2613.91 558.707 2619.82 570.347 2622.5 584.674C2624.47 594.702 2624.83 595.419 2629.49 595.419H2634.5L2633.43 574.287C2632.89 562.826 2632 545.276 2631.28 535.427L2630.2 517.519L2495.72 516.981L2361.23 516.623L2359.97 533.994Z" fill="white"/>
<path d="M3336.14 517.877C3335.43 518.414 3334.89 520.921 3334.89 523.249C3334.89 527.189 3335.6 527.368 3345.81 527.368C3370.17 527.368 3378.76 533.815 3381.45 554.409C3383.6 571.064 3383.78 794.199 3381.63 810.853C3380.55 818.375 3378.76 824.463 3376.61 826.791C3371.06 833.059 3360.68 836.999 3347.6 838.252C3335.78 839.327 3334.89 839.864 3334.89 843.625V847.923H3462.57H3590.26L3604.05 807.809C3611.57 785.782 3617.84 766.799 3617.84 765.725C3617.84 764.65 3615.87 763.755 3613.72 763.755C3610.31 763.755 3607.63 766.978 3599.75 780.23C3588.47 799.392 3572.17 816.942 3560.35 822.672C3554.08 825.538 3546.02 827.149 3529.91 828.403C3501.61 830.91 3444.66 829.836 3439.29 826.791C3430.88 822.135 3430.7 820.344 3430.16 750.682L3429.62 684.959H3474.03C3521.31 684.959 3528.83 686.034 3538.86 693.376C3545.85 698.748 3548.89 705.195 3551.58 721.313C3553.73 732.953 3553.9 733.311 3558.92 733.311H3564.11V676.005V618.699H3558.92C3554.08 618.699 3553.73 619.237 3552.65 628.012C3550.68 642.875 3543.7 655.59 3534.92 660.425C3527.76 664.186 3525.07 664.365 3478.69 664.902L3429.8 665.439V600.97V536.322H3483.35C3512.72 536.322 3541.01 537.217 3546.38 538.113C3567.16 542.053 3575.57 552.977 3582.74 585.032C3583.63 589.151 3584.89 590.046 3589.18 590.046H3594.38L3593.48 574.287C3592.94 565.691 3591.87 549.395 3591.33 538.113L3590.08 517.519L3463.65 516.981C3394.16 516.802 3336.68 517.16 3336.14 517.877Z" fill="white"/>
</svg>
