<svg width="730" height="655" viewBox="0 0 730 655" fill="none" xmlns="http://www.w3.org/2000/svg">
<path d="M198.398 2.40319C184.932 5.20319 170.532 11.3365 160.132 18.4032C147.998 26.6699 129.332 43.7365 123.865 51.4699C117.732 60.2699 109.065 77.2032 105.865 86.6699C95.7315 116.937 98.7982 151.737 114.532 182.803C125.065 203.603 145.065 220.937 171.865 232.27C190.398 240.27 196.798 241.47 219.065 241.337C249.732 241.203 271.998 235.737 293.732 222.803L302.265 217.603L302.665 170.537L303.065 123.603H262.265H221.465V136.27L221.332 149.07L249.465 148.937L277.732 148.67L278.132 177.337L278.398 205.87L268.132 209.87C252.132 216.27 243.865 217.47 220.398 217.603C200.398 217.603 198.265 217.337 187.198 213.737C173.732 209.337 158.798 199.603 148.665 188.537C139.732 178.937 128.532 156.27 126.398 143.47C124.265 131.337 125.332 107.87 128.398 94.9365C131.732 80.9365 141.465 63.0699 151.065 53.4699C170.798 33.7365 191.998 24.5365 222.398 22.6699C241.198 21.6032 256.398 24.6699 274.798 33.2032L289.598 40.0032L295.332 33.7365C304.532 23.6032 303.865 22.4032 284.798 12.9365C264.798 3.06986 255.598 0.936527 230.398 0.136527C214.398 -0.263473 208.932 0.136527 198.398 2.40319Z" fill="black"/>
<path d="M360.265 268.403C360.531 415.736 360.798 536.27 360.931 536.27C361.065 536.27 364.931 536.27 369.731 536.27H378.398V269.203V2.26975H374.131C371.731 2.26975 367.465 1.86975 364.798 1.46975L359.865 0.536414L360.265 268.403Z" fill="black"/>
<path d="M321.198 268.27C321.065 414.803 320.798 534.936 320.532 535.47C320.265 535.87 324.665 536.27 330.532 536.27L341.065 536.403V270.003V3.60305H333.198C328.798 3.60305 324.398 3.20305 323.332 2.80305C321.465 2.13638 321.198 31.8697 321.198 268.27Z" fill="black"/>
<path d="M434.132 45.8698C433.865 70.0032 433.865 190.27 434.132 313.203L434.398 536.937H443.732H453.065L453.198 477.203C453.465 394.803 453.465 203.87 453.332 93.8698L453.065 2.26983H443.732H434.532L434.132 45.8698Z" fill="black"/>
<path d="M398.131 269.203C397.865 415.336 397.865 535.07 397.865 535.336C397.998 535.603 402.265 536.136 407.465 536.536L416.931 537.336L416.798 270.403L416.665 3.60306H407.598H398.398L398.131 269.203Z" fill="black"/>
<path d="M469.731 370.537C469.731 456.537 469.331 529.07 468.931 531.87C468.131 536.403 468.398 536.803 472.265 537.47C474.531 538.003 492.665 538.67 512.531 539.203C546.265 539.87 549.198 539.737 559.731 537.07C584.665 530.803 606.131 515.737 615.065 498.27C616.398 495.737 619.198 491.203 621.198 488.27C623.465 485.203 626.265 478.27 627.865 471.603C630.265 462.137 630.665 457.87 629.998 445.603C629.198 428.803 626.131 418.003 618.665 405.737C613.198 396.537 595.065 378.27 586.798 373.337C583.598 371.47 581.065 369.337 581.065 368.403C581.065 367.603 585.598 363.07 591.198 358.27C599.465 351.203 602.531 347.47 608.398 336.937C616.531 322.27 618.798 313.87 618.665 296.27C618.398 270.537 607.198 250.137 584.665 234.537C563.998 220.27 556.265 218.403 511.731 216.937C492.265 216.27 474.931 215.337 473.065 214.937L469.731 214.137V370.537ZM523.065 240.937C539.198 241.87 548.398 242.937 554.531 244.803C570.665 249.87 585.998 264.003 591.598 278.937C595.465 289.07 597.465 302.803 596.531 310.537C595.465 318.003 588.665 334.27 586.531 334.27C585.865 334.27 584.131 336.137 582.798 338.403C579.998 343.203 569.598 351.203 559.998 356.137C552.265 360.003 548.265 360.27 511.731 358.67L491.065 357.87L490.665 298.803L490.265 239.603H495.331C498.131 239.603 510.665 240.27 523.065 240.937ZM555.465 384.67C560.531 386.003 568.131 389.07 572.398 391.603C583.331 398.137 595.865 410.803 600.265 419.737C608.531 436.937 609.865 464.803 602.798 479.07C597.598 489.603 585.731 503.337 575.998 509.87C562.931 518.67 553.731 520.137 519.865 518.937C504.798 518.403 492.131 517.603 491.731 517.203C491.331 516.67 491.198 485.737 491.465 448.403L491.998 380.537L519.065 381.47C537.998 382.003 548.931 383.07 555.465 384.67Z" fill="black"/>
<path d="M129.598 257.87C129.998 272.403 130.398 340.803 130.398 409.87V535.603H134.265C136.265 535.603 140.798 536.003 144.265 536.403L150.398 537.336V389.736V242.136L144.132 239.336C140.532 237.87 136.132 235.47 134.132 234.136C132.265 232.67 130.265 231.603 129.598 231.603C129.065 231.603 129.065 243.47 129.598 257.87Z" fill="black"/>
<path d="M296.931 240.137C295.198 242.003 291.065 244.27 287.731 245.337L281.731 247.337V392.137V536.937H291.731H301.731V387.737C301.731 305.603 301.465 238.137 300.931 237.737C300.531 237.337 298.798 238.403 296.931 240.137Z" fill="black"/>
<path d="M169.065 392.803C169.065 470.67 168.798 534.803 168.531 535.47C168.131 536.003 172.398 536.403 177.865 536.403L187.731 536.27L187.465 397.203L187.065 258.003L180.398 255.603C176.798 254.27 172.665 252.803 171.465 252.27C169.198 251.336 169.065 258.67 169.065 392.803Z" fill="black"/>
<path d="M257.732 254.936C255.598 256.003 251.465 257.203 248.532 257.603L243.465 258.403L244.265 293.336C244.665 312.536 244.665 375.07 244.132 432.27L243.065 536.403H252.798H262.398V394.67C262.398 316.67 262.265 252.936 262.132 253.07C261.865 253.07 259.998 253.87 257.732 254.936Z" fill="black"/>
<path d="M206.531 396.537L207.065 535.337L212.931 536.137C216.131 536.537 220.131 536.937 221.865 536.937H225.065V398.27V259.603H221.865C220.131 259.603 215.865 259.203 212.398 258.67L206.131 257.87L206.531 396.537Z" fill="black"/>
<path d="M163.172 591.737C146.842 594.446 136.382 606.035 136.382 621.386C136.458 636.286 144.66 648.1 158.055 652.465C167.837 655.7 176.19 655.249 184.317 651.11C186.725 649.906 189.133 648.853 189.66 648.853C190.262 648.853 190.789 647.197 191.165 644.563C191.466 642.23 191.842 639.898 192.068 639.296C192.896 637.189 190.488 638.468 187.929 641.403C184.016 645.993 178.974 648.1 171.826 648.1C167.762 648.1 165.053 647.648 162.645 646.595C157.528 644.413 152.185 639.07 149.702 633.577C147.745 629.287 147.519 628.158 147.519 620.182V611.453L150.605 607.013C154.819 600.918 159.71 598.434 168.364 597.908C178.448 597.306 183.414 599.789 189.735 608.668L191.316 610.851L190.714 606.712C190.413 604.454 190.112 600.692 190.112 598.359L190.036 594.07L187.252 593.693C185.672 593.543 182.06 592.79 179.125 592.113C173.406 590.834 169.267 590.759 163.172 591.737Z" fill="black"/>
<path d="M451.233 595.274C447.47 604.078 437.688 626.052 435.505 630.492C434.226 632.975 432.27 637.716 431.141 640.951C430.012 644.187 427.905 648.552 426.626 650.508L424.143 654.12H432.796C437.537 654.12 441.375 653.819 441.375 653.443C441.375 653.067 440.171 652.089 438.666 651.186C435.731 649.455 435.731 649.455 438.591 641.93L440.171 637.716L447.094 637.189C450.857 636.888 455.748 636.888 457.93 637.189L461.843 637.716L464.026 642.532C466.81 648.627 466.81 650.132 463.95 651.712C462.746 652.39 461.693 653.142 461.693 653.368C461.693 653.744 477.496 653.819 480.807 653.518C482.011 653.368 481.86 652.992 479.828 650.734C478.549 649.229 476.517 646.068 475.313 643.736C473.282 639.597 464.703 618.527 464.703 617.473C464.703 616.796 454.093 592.113 453.491 591.511C453.265 591.21 452.211 592.941 451.233 595.274ZM458.006 624.923L460.113 630.04H452.211C444.987 630.04 444.31 629.89 444.686 628.685C444.837 628.008 445.288 626.578 445.514 625.525C445.815 624.471 447.245 620.859 448.75 617.398L451.383 611.152L453.641 615.517C454.845 617.925 456.802 622.139 458.006 624.923Z" fill="black"/>
<path d="M547.479 592.113C548.081 592.865 549.36 594.521 550.263 595.65C551.994 597.757 551.994 597.907 551.994 622.364V646.971L550.113 649.831C549.059 651.336 547.78 652.615 547.253 652.69C546.727 652.69 547.028 652.916 547.855 653.217C548.683 653.518 557.864 653.668 568.248 653.518L587.137 653.292L587.663 648.25C587.889 645.466 588.341 642.305 588.566 641.101C589.319 637.715 587.137 638.618 584.578 642.682C582.471 646.068 582.019 646.369 578.708 646.821C573.516 647.573 563.432 647.498 562.981 646.67C562.755 646.369 562.454 641.628 562.304 636.135L562.003 626.277H569.152C575.924 626.277 576.526 626.427 578.483 628.309C579.611 629.362 580.74 630.19 580.891 629.964C581.417 629.362 581.869 617.247 581.342 617.247C581.041 617.247 580.364 617.774 579.837 618.376C579.085 619.279 577.053 619.504 570.506 619.504H562.153L561.927 609.345L561.626 599.187H571.861H582.17L583.675 601.82C585.481 604.83 587.814 605.508 587.061 602.723C586.836 601.82 586.61 598.886 586.61 596.177V591.285L574.795 591.887C563.432 592.414 551.091 592.113 547.855 591.135C546.501 590.758 546.426 590.834 547.479 592.113Z" fill="black"/>
<path d="M221.642 593.016C212.311 595.65 207.194 599.488 203.13 606.637C194.326 622.439 200.647 643.66 216.525 651.411C224.351 655.249 235.638 655.475 242.637 651.863C250.99 647.649 258.364 639.145 261.224 630.567C263.18 624.622 262.428 615.667 259.418 609.496C256.182 603.025 249.033 596.177 243.013 593.919C236.842 591.662 227.888 591.285 221.642 593.016ZM239.702 600.692C244.368 603.1 247.603 606.336 249.56 610.625C251.14 614.087 251.366 615.742 251.366 623.267C251.366 631.169 251.215 632.297 249.259 636.436C246.625 642.005 244.819 643.961 240.304 646.294C236.165 648.401 228.64 648.777 224.577 647.046C214.794 642.908 209.526 634.028 209.526 621.386C209.451 614.914 211.257 608.593 214.192 604.906C215.697 602.949 220.061 600.316 223.899 599.112C226.985 598.058 236.391 599.036 239.702 600.692Z" fill="black"/>
<path d="M271.308 592.49C271.308 592.715 271.985 593.543 272.737 594.22C274.092 595.5 274.242 596.929 274.468 617.849C274.694 643.058 274.769 643.435 281.015 649.078C285.982 653.518 295.689 655.4 303.214 653.292C307.202 652.164 313.072 646.445 315.932 640.951L318.264 636.436L318.716 616.495C319.092 597.155 319.167 596.478 320.823 594.07L322.554 591.662H315.029C307.654 591.662 305.923 592.264 308.783 593.844C309.911 594.521 310.062 596.553 310.288 616.419C310.513 637.565 310.513 638.468 308.933 641.704C305.998 647.874 298.925 649.906 292.378 646.595C285.154 642.908 283.799 636.587 284.552 611.001C285.003 596.102 285.154 594.521 286.433 593.844C289.142 592.414 287.788 592.038 279.585 592.038C274.995 592.038 271.308 592.264 271.308 592.49Z" fill="black"/>
<path d="M333.766 594.371C335.196 596.629 335.271 598.209 335.271 623.117C335.271 649.304 335.271 649.53 333.615 651.11C332.712 651.938 331.734 652.615 331.358 652.615C331.057 652.615 330.756 652.916 330.756 653.368C330.756 653.819 334.293 654.12 339.786 654.12C344.753 654.12 348.816 653.895 348.816 653.594C348.816 653.293 348.139 652.314 347.311 651.487C345.355 649.455 344.602 642.005 345.43 633.502L345.957 627.707L349.343 627.933C352.654 628.159 352.804 628.309 355.664 633.05C363.565 646.52 367.93 653.293 368.908 653.669C369.51 653.97 372.37 654.12 375.305 654.12H380.572L379.142 652.39C367.93 638.092 361.082 627.707 361.985 626.277C362.286 625.826 362.888 625.525 363.415 625.525C365.522 625.525 370.639 620.032 372.972 615.291C375.305 610.625 375.38 610.249 374.477 606.486C373.348 601.219 370.639 597.456 366.35 594.898C362.587 592.715 363.34 592.791 341.141 592.189L332.336 591.963L333.766 594.371ZM360.932 602.122C363.565 604.68 363.866 605.433 363.866 608.669C363.866 617.247 361.233 620.859 354.61 621.537C352.353 621.762 349.268 621.762 347.763 621.461L345.054 620.935V614.012C345.054 610.174 345.279 605.282 345.505 603.1L346.032 599.187H352.052C357.997 599.187 358.072 599.187 360.932 602.122Z" fill="black"/>
<path d="M386.442 597.005C386.442 599.789 386.216 603.1 385.99 604.379C385.313 607.841 387.57 607.465 389.377 603.777C391.183 600.316 392.01 599.939 397.805 599.939H402.244V624.772C402.244 643.66 402.019 649.756 401.341 650.358C400.815 650.809 399.686 651.637 398.858 652.239C398.03 652.766 397.504 653.443 397.729 653.669C398.03 653.97 413.457 654.346 416.843 654.195C417.219 654.12 416.843 653.368 415.94 652.389C413.005 649.229 412.78 647.272 412.78 623.192V599.939H419.176H425.572L426.626 602.573C428.056 606.035 429.335 605.96 429.335 602.347C429.335 600.842 429.561 597.832 429.786 595.801L430.238 592.038H408.34H386.442V597.005Z" fill="black"/>
<path d="M505.339 592.414C497.813 594.22 489.235 599.639 485.623 604.906C479.302 613.936 479.828 630.266 486.676 641.102C492.32 649.982 501.124 654.12 514.218 654.12C521.367 654.045 525.355 653.217 531.827 650.207L536.869 647.95L537.094 637.189C537.32 627.933 537.546 626.202 538.75 624.848L540.105 623.343L527.237 623.117L514.369 622.891V624.923C514.369 627.03 514.444 627.03 519.109 627.03C525.732 627.03 526.484 627.707 527.237 635.007C528.29 645.165 528.29 645.015 524.753 646.595C520.389 648.552 510.681 648.627 506.467 646.671C498.942 643.284 492.546 631.545 491.944 620.107C491.643 614.388 491.793 613.109 493.298 610.324C497.512 602.047 504.21 598.209 514.369 598.134C523.023 598.134 527.237 600.09 530.623 605.809L533.031 609.722L533.407 604.304C533.633 601.294 534.084 597.908 534.31 596.704C534.762 594.898 534.611 594.672 533.106 594.672C532.128 594.672 528.591 593.995 525.28 593.167C519.034 591.662 510.155 591.286 505.339 592.414Z" fill="black"/>
<path d="M0 625.497V629.837L40.1914 629.527C62.3019 629.32 80.5895 629.01 80.8995 628.7C81.1061 628.39 81.6227 626.944 82.036 625.291L82.6559 622.501H49.2836C30.8926 622.501 12.2951 622.191 7.95563 621.881L0 621.158V625.497Z" fill="black"/>
<path d="M96.0875 625.601V629.734H107.453H118.818V625.601V621.468H107.453H96.0875V625.601Z" fill="black"/>
<path d="M606.746 625.549V629.166H621.211H635.676V625.549V621.933H621.211H606.746V625.549Z" fill="black"/>
<path d="M653.24 624.619C652.62 626.066 652.207 627.719 652.207 628.235C652.207 628.752 667.188 629.165 689.919 629.165C710.686 629.165 727.94 629.165 728.457 629.165C728.87 629.165 729.283 627.615 729.49 625.549L729.8 621.933H691.985H654.273L653.24 624.619Z" fill="black"/>
</svg>
