<svg width="1173" height="1047" viewBox="0 0 1173 1047" fill="none" xmlns="http://www.w3.org/2000/svg">
<path d="M328.966 1.4158C270.708 8.0853 221.772 37.5757 191.156 84.4228C186.014 92.2976 177.657 108.77 173.8 118.574C162.068 148.386 157.97 185.751 162.55 220.786C170.746 283.865 207.469 336.578 261.789 363.175C280.27 372.256 298.511 378.041 318.761 381.255C331.859 383.345 373.242 383.345 387.866 381.255C409.321 378.202 427.642 373.782 445.642 367.354C456.57 363.416 474.168 355.22 481.882 350.56L486.703 347.667V265.303V183.019H425.633H364.563V199.492V215.964H406.75H448.936L448.776 271.57L448.534 327.176L442.106 330.631C419.285 342.846 385.777 350.158 352.269 350.158C318.68 350.158 292.163 342.283 265.244 324.364C255.119 317.614 238.887 301.945 231.816 292.302C215.504 269.883 205.219 243.526 201.362 214.357C199.915 203.268 200.076 179.001 201.763 167.35C209.477 113.351 239.53 70.2803 284.61 48.4236C301.806 40.0667 317.555 35.9686 339.091 34.2811C359.26 32.674 382.723 35.2454 400.723 40.9506C417.758 46.4148 437.204 57.6645 449.579 69.316C453.115 72.6106 456.329 75.3427 456.731 75.3427C457.695 75.3427 481.882 50.995 481.882 49.9504C481.882 49.4683 479.552 47.0576 476.659 44.5666C450.865 21.7457 421.857 8.40671 386.018 2.94254C373.965 1.09436 339.894 0.210449 328.966 1.4158Z" fill="white"/>
<path d="M516.997 2.78204C516.676 3.02313 516.435 195.233 516.435 429.871V856.396H528.89H541.345V429.308V2.21954H529.452C522.863 2.21954 517.238 2.46063 516.997 2.78204Z" fill="white"/>
<path d="M575.496 3.18451C575.255 3.74701 575.175 195.877 575.255 430.112L575.496 855.995L587.79 856.236L600.004 856.478V429.309V2.22028H587.951C579.032 2.22028 575.737 2.4613 575.496 3.18451Z" fill="white"/>
<path d="M634.557 429.309V856.478L646.851 856.236L659.065 855.995V429.309V2.62201L646.851 2.38098L634.557 2.13989V429.309Z" fill="white"/>
<path d="M695.386 2.78204C695.065 3.02313 694.823 195.233 694.823 429.871V856.396H707.279H719.734V429.308V2.21954H707.841C701.252 2.21954 695.627 2.46063 695.386 2.78204Z" fill="white"/>
<path d="M755.09 228.822V261.768H759.51H763.929L764.01 234.607V207.528L774.697 234.447L785.384 261.366H788.518H791.571L802.098 234.849L812.544 208.412L812.785 235.09L812.946 261.768H817.767H822.589L822.428 228.983L822.187 196.278H815.116H807.964L798.643 220.545C793.5 233.965 789.08 244.893 788.839 244.893C788.518 244.893 784.179 234.286 779.197 221.349C774.215 208.492 769.715 197.403 769.313 196.84C768.831 196.198 766.259 195.876 761.84 195.876H755.09V228.822Z" fill="white"/>
<path d="M837.856 228.903V261.929L852.561 261.607C869.275 261.206 873.935 260 879.078 254.857C882.775 251.161 883.9 247.625 883.498 241.277C883.096 234.929 880.444 231.072 874.578 228.501L870.561 226.733L873.132 225.608C883.658 221.269 883.417 204.394 872.73 198.85C868.793 196.841 861.4 195.877 849.347 195.877H837.856V228.903ZM866.462 205.76C869.837 207.528 870.882 208.975 871.364 212.591C871.927 216.528 869.998 220.305 866.623 222.072C865.016 222.956 861.159 223.519 855.775 223.84L847.499 224.242V213.957V203.671L855.775 204.073C860.918 204.394 865.016 205.037 866.462 205.76ZM868.953 233.563C872.971 235.411 874.337 237.661 874.337 242.643C874.337 245.617 873.855 246.983 872.328 248.59C868.873 252.286 866.221 253.17 856.579 253.572L847.499 253.974V242.965V232.037H856.579C863.65 232.037 866.302 232.358 868.953 233.563Z" fill="white"/>
<path d="M753.885 353.533C753.644 354.096 753.563 467.397 753.644 605.286L753.885 855.995H824.196C901.096 855.995 898.685 856.075 918.613 851.093C952.603 842.495 979.201 821.121 994.951 789.702C1005.4 768.97 1009.58 746.39 1008.77 715.534C1008.29 696.249 1006.52 684.758 1001.78 670.615C995.272 651.169 986.594 636.384 974.139 623.849C965.621 615.17 957.826 609.465 947.139 604.081C936.854 598.938 930.666 596.849 915.158 593.153C908.006 591.465 902.381 589.858 902.703 589.537C903.104 589.296 908.086 588.09 913.792 586.885C922.55 585.117 925.765 583.992 933.881 579.975C959.434 567.278 976.63 547.029 986.111 518.503C994.709 492.95 994.629 453.093 986.031 427.46C980.888 411.952 972.451 398.532 960.478 386.64C942.8 369.122 923.033 360.042 890.489 354.497C883.498 353.292 874.016 353.051 818.33 352.81C766.018 352.569 754.206 352.649 753.885 353.533ZM882.051 389.05C902.622 393.068 916.042 399.496 928.095 411.148C944.97 427.38 953.568 450.924 953.568 480.896C953.568 510.065 944.97 532.967 927.131 551.288C916.363 562.457 903.345 569.769 886.471 574.189L878.435 576.278L835.686 576.6L792.857 576.841V481.941V386.961L834.079 387.363C867.989 387.684 876.426 387.925 882.051 389.05ZM893.301 611.876C913.631 617.259 927.452 625.134 940.791 639.036C947.139 645.625 951.559 652.294 956.942 663.223C964.657 679.133 968.032 695.767 968.032 718.186C968.032 749.846 959.514 774.917 942.8 792.675C928.898 807.38 913.551 815.496 890.89 819.916C885.185 821.04 876.828 821.282 838.499 821.603L792.857 821.924V715.373V608.822L838.499 609.063L884.06 609.385L893.301 611.876Z" fill="white"/>
<path d="M210.281 607.697V856.396H222.736H235.191V616.295V376.273L228.12 371.693C224.263 369.122 218.799 365.265 216.067 363.015C213.334 360.845 210.924 358.997 210.683 358.997C210.442 358.997 210.281 470.932 210.281 607.697Z" fill="white"/>
<path d="M473.846 381.898C472.721 382.461 467.579 384.711 462.436 386.8L452.954 390.657V623.527V856.396H465.409H477.864V618.545C477.864 428.745 477.623 380.693 476.9 380.693C476.337 380.773 474.971 381.255 473.846 381.898Z" fill="white"/>
<path d="M271.351 625.295V856.396H283.806H296.261V628.991C296.261 447.709 296.02 401.505 295.297 401.264C292.243 400.3 273.922 394.916 272.797 394.595C271.431 394.193 271.351 405.523 271.351 625.295Z" fill="white"/>
<path d="M405.544 402.872C400 403.836 395.018 404.72 394.536 404.72C393.732 404.8 393.491 450.523 393.491 630.599V856.478L405.785 856.236L417.999 855.995L418.241 628.349C418.401 411.952 418.321 400.783 417.035 400.863C416.232 400.943 411.089 401.827 405.544 402.872Z" fill="white"/>
<path d="M333.225 631.804V856.478L345.519 856.236L357.733 855.995V631.804V407.613L345.519 407.372L333.225 407.131V631.804Z" fill="white"/>
<path d="M66.0432 891.753C58.1684 892.878 51.1775 894.887 44.1866 898.181C35.8296 902.119 31.2494 905.253 24.3388 911.761C8.58915 926.949 0.553619 946.877 0.553619 971.224C0.553619 988.26 4.57139 1002.64 12.7676 1015.1C26.187 1035.59 46.1151 1045.95 71.8288 1046.04C86.5338 1046.04 98.7478 1042.82 108.712 1036.31C115.221 1032.13 124.703 1022.25 129.845 1014.38L133.943 1008.03L132.256 1006.82C130.569 1005.7 130.327 1005.78 127.997 1008.75C114.739 1025.38 106.542 1031.65 93.7658 1034.87C87.5784 1036.47 72.2306 1036.23 65.6414 1034.54C48.0436 1029.96 34.4636 1016.54 29.1601 998.626C27.0709 991.715 25.4638 979.662 25.4638 970.903C25.4638 938.439 35.8296 914.654 54.0703 905.172C57.2041 903.565 61.8647 901.717 64.5165 900.994C70.7038 899.387 84.4446 899.387 90.873 901.074C106.141 905.012 117.953 917.065 124.703 935.707C126.551 940.77 127.113 941.573 128.801 941.573C130.408 941.573 130.649 941.252 130.327 939.323C130.167 938.118 129.363 927.591 128.72 915.86C127.194 890.869 127.194 890.949 125.024 890.949C123.899 890.949 123.015 891.994 121.971 894.405C119.962 898.985 116.667 901.637 113.453 901.155C112.167 900.994 108.149 899.467 104.533 897.86C92.3194 892.396 77.6947 890.065 66.0432 891.753Z" fill="white"/>
<path d="M212.531 891.833C204.415 892.958 192.924 896.896 185.853 901.074C178.058 905.654 166.809 916.261 161.666 924.056C153.63 936.029 150.014 947.921 149.452 964.876C148.568 990.349 155.318 1009.31 170.907 1025.14C184.969 1039.45 200.879 1046.04 221.129 1046.04C241.057 1046.04 256.967 1039.53 271.03 1025.54C274.565 1022.01 279.065 1016.87 280.913 1014.05C298.19 988.42 298.752 950.171 282.199 924.618C272.235 909.27 256.485 897.619 239.691 893.36C232.138 891.432 220.084 890.708 212.531 891.833ZM233.182 900.994C256.244 907.02 268.94 931.77 268.94 970.662C268.94 996.295 263.717 1013.41 252.467 1024.82C243.628 1033.82 233.745 1038 221.129 1038C209.076 1038 201.281 1034.79 192.924 1026.35C182.398 1015.74 176.612 1000.31 174.844 978.537C171.71 937.877 185.13 907.663 209.397 900.913C214.62 899.467 227.477 899.547 233.182 900.994Z" fill="white"/>
<path d="M796.312 891.914C795.91 892.476 783.134 921.887 768.108 957.243C753.001 992.599 739.34 1023.7 737.733 1026.35C732.751 1034.63 731.546 1035.51 720.778 1038.48C720.216 1038.64 719.734 1039.69 719.734 1040.81V1042.82H743.438H767.143V1040.81C767.143 1038.72 766.661 1038.48 759.911 1037.6C755.331 1037.04 751.313 1034.63 750.269 1031.89C748.983 1028.6 750.028 1024.98 756.938 1008.43L763.447 993.001L791.973 993.162L820.419 993.403L825.963 1006.5C833.035 1023.29 834.561 1028.76 833.035 1032.38C831.829 1035.19 827.088 1037.92 823.231 1038C819.856 1038 818.571 1038.8 818.571 1040.89V1042.82H847.981H877.31L877.069 1040.65C876.828 1038.64 876.426 1038.32 872.971 1037.84C867.909 1037.12 862.766 1033.98 860.195 1030.21C856.177 1024.18 853.365 1017.75 827.008 954.832C804.91 902.119 800.169 891.271 798.803 891.11C797.839 890.95 796.794 891.352 796.312 891.914ZM805.232 956.279C811.66 971.707 816.964 984.403 816.964 984.644C816.964 984.805 805.794 984.965 792.053 984.965C778.393 984.965 767.143 984.805 767.143 984.644C767.143 984.483 772.447 972.109 778.875 957.163C785.304 942.136 790.928 929.038 791.411 927.913C792.053 926.306 792.294 926.145 792.857 927.11C793.178 927.752 798.803 940.931 805.232 956.279Z" fill="white"/>
<path d="M957.585 891.512C951.639 892.155 941.916 894.324 936.773 896.253C919.818 902.601 904.31 917.868 895.23 937.073C889.203 949.85 888.158 954.993 888.158 971.305C888.158 984.322 888.319 985.929 890.408 992.599C896.194 1011.56 908.89 1027.39 925.443 1036.31C937.898 1042.98 951.8 1046.04 969.719 1046.04C986.835 1046.04 999.692 1043.3 1013.99 1036.63L1021.79 1032.94L1022.03 1003.53C1022.27 976.689 1022.43 973.876 1023.72 971.867C1025.97 968.492 1029.74 966.483 1034.16 966.483C1037.86 966.483 1037.94 966.403 1037.94 964.073V961.662L1009.25 961.823L980.487 962.064V964.073C980.487 966.001 980.808 966.082 985.951 966.644C992.54 967.287 995.835 969.055 998.085 973.314C999.692 976.367 999.772 977.653 999.772 1003.45V1030.37L994.71 1032.86C982.897 1038.72 966.505 1040.01 954.773 1035.99C942.479 1031.89 933.157 1024.74 926.167 1014.13C902.542 977.974 911.622 920.359 943.523 904.69C951.639 900.672 957.585 899.467 968.433 899.467C976.71 899.547 978.96 899.869 984.344 901.717C999.37 906.779 1008.29 916.502 1016.16 936.189C1016.81 937.877 1017.53 938.439 1018.9 938.198C1020.99 937.877 1020.99 940.609 1018.66 911.842C1017.77 900.994 1017.05 891.833 1017.05 891.512C1017.05 891.11 1016.08 890.949 1014.88 891.11C1013.19 891.271 1012.55 891.833 1012.39 893.36C1011.99 897.056 1010.46 899.788 1008.61 900.271C1007.49 900.512 1001.94 899.146 994.388 896.655C979.121 891.673 969.317 890.307 957.585 891.512Z" fill="white"/>
<path d="M304.056 894.726C303.734 894.967 303.493 896.092 303.493 897.137C303.493 898.904 303.815 898.985 308.957 898.985C316.35 899.065 320.529 900.994 322.939 905.574L324.787 909.029L325.269 955.233C325.591 985.367 326.073 1003.21 326.716 1006.58C328.885 1018.31 332.662 1025.38 340.858 1033.1C347.367 1039.12 354.117 1042.42 364.242 1044.51C375.411 1046.84 396.625 1046.36 405.143 1043.62C413.982 1040.81 419.928 1037.28 426.035 1031.17C439.294 1017.99 440.901 1009.23 440.901 948.082C440.981 909.592 441.142 907.583 444.678 903.645C447.088 900.913 452.151 898.985 457.213 898.985C461.793 898.985 461.793 898.985 461.793 896.574V894.163L435.517 894.324L409.16 894.565L408.919 896.654C408.678 898.744 408.759 898.744 415.026 899.145C422.74 899.547 426.196 901.315 428.446 905.815C429.972 908.949 430.053 910.636 430.053 954.028C430.053 994.608 429.892 999.67 428.606 1005.86C427.803 1009.63 426.196 1014.37 425.071 1016.54C420.973 1023.94 411.25 1031.17 400.803 1034.54C395.5 1036.23 380.956 1036.79 374.849 1035.67C364.161 1033.58 354.358 1025.71 350.903 1016.54C347.287 1006.82 346.805 999.349 347.046 952.18C347.287 909.752 347.367 908.145 348.894 905.413C351.224 901.395 356.367 898.985 362.715 898.985H367.777V896.574V894.163H336.198C318.761 894.163 304.297 894.404 304.056 894.726Z" fill="white"/>
<path d="M467.981 894.726C467.659 894.968 467.418 896.012 467.418 896.976C467.418 898.664 467.9 898.825 473.766 899.146C481.4 899.548 484.855 901.316 487.105 905.815C488.632 908.949 488.712 910.878 488.953 963.671C489.114 993.724 488.953 1020.96 488.712 1024.1C487.828 1034.06 484.052 1037.6 473.605 1038.48C467.82 1039.04 467.418 1039.12 467.418 1040.89V1042.82H499.56H531.702V1040.89C531.702 1039.12 531.301 1039.04 525.515 1038.48C515.631 1037.68 512.015 1034.63 510.81 1025.87C510.408 1023.05 510.006 1010.12 510.006 997.179V973.716H517.881L525.676 973.796L550.586 1008.27L575.496 1042.82H595.344H615.272V1040.81C615.272 1038.56 615.352 1038.56 608.442 1037.28C600.486 1035.83 594.54 1032.38 587.871 1025.38C583.13 1020.4 548.818 974.037 547.934 971.466C547.854 971.144 550.345 970.019 553.559 968.975C556.773 967.93 561.595 966.002 564.246 964.555C585.701 953.305 589.96 924.699 572.764 907.824C563.764 898.985 555.246 896.253 532.908 894.968C517.479 894.084 468.784 893.843 467.981 894.726ZM540.14 905.494C546.006 907.664 552.675 913.851 555.568 919.717C557.657 923.976 557.818 925.02 557.818 933.94C557.818 942.94 557.657 943.824 555.568 947.841C549.3 959.734 538.291 965.359 519.89 966.243L510.006 966.725V936.109V905.414L511.855 905.012C521.337 902.682 533.309 902.923 540.14 905.494Z" fill="white"/>
<path d="M607.718 901.958C607.477 906.298 606.995 914.253 606.754 919.717L606.192 929.681L608.522 929.36C610.611 929.119 610.852 928.797 611.415 925.181C612.54 917.306 616.557 910.637 622.343 907.262C626.039 905.012 626.361 905.012 641.628 904.771L657.056 904.449L656.896 967.609C656.655 1030.29 656.655 1030.69 654.967 1032.94C652.315 1036.47 649.021 1037.92 642.351 1038.48C636.566 1039.04 636.164 1039.12 636.164 1040.89V1042.82H667.904H699.645V1040.89C699.645 1039.12 699.243 1038.96 693.859 1038.48C686.466 1037.84 682.85 1035.99 680.761 1031.89C679.235 1028.84 679.154 1026.91 678.913 966.644L678.672 904.61H693.056C709.207 904.61 712.662 905.333 717.805 909.753C721.662 913.047 724.314 918.271 725.519 924.699C726.403 929.199 726.564 929.52 728.653 929.52H730.903L730.421 920.038C730.18 914.896 729.778 907.021 729.457 902.601L728.974 894.566L668.628 894.325L608.281 894.164L607.718 901.958Z" fill="white"/>
<path d="M1045.74 894.726C1045.41 894.968 1045.17 896.092 1045.17 897.137C1045.17 898.905 1045.49 898.985 1050.07 898.985C1061 898.985 1064.86 901.878 1066.07 911.119C1067.03 918.592 1067.11 1018.71 1066.15 1026.19C1065.66 1029.56 1064.86 1032.29 1063.9 1033.34C1061.4 1036.15 1056.74 1037.92 1050.88 1038.48C1045.57 1038.96 1045.17 1039.21 1045.17 1040.89V1042.82H1102.47H1159.76L1165.95 1024.82C1169.32 1014.94 1172.13 1006.42 1172.13 1005.94C1172.13 1005.46 1171.25 1005.05 1170.29 1005.05C1168.76 1005.05 1167.55 1006.5 1164.02 1012.45C1158.96 1021.05 1151.64 1028.92 1146.34 1031.49C1143.53 1032.78 1139.91 1033.5 1132.68 1034.06C1119.98 1035.19 1094.43 1034.71 1092.02 1033.34C1088.24 1031.25 1088.16 1030.45 1087.92 999.188L1087.68 969.698H1107.61C1128.82 969.698 1132.2 970.18 1136.7 973.475C1139.83 975.885 1141.2 978.778 1142.4 986.01C1143.37 991.233 1143.45 991.394 1145.7 991.394H1148.03V965.68V939.966H1145.7C1143.53 939.966 1143.37 940.208 1142.88 944.145C1142 950.814 1138.87 956.52 1134.93 958.689C1131.72 960.377 1130.51 960.457 1109.7 960.698L1087.76 960.939V932.011V903.003H1111.79C1124.97 903.003 1137.66 903.405 1140.07 903.807C1149.39 905.574 1153.17 910.476 1156.38 924.86C1156.79 926.708 1157.35 927.11 1159.28 927.11H1161.61L1161.21 920.038C1160.96 916.181 1160.48 908.869 1160.24 903.807L1159.68 894.566L1102.95 894.325C1071.77 894.244 1045.98 894.405 1045.74 894.726Z" fill="white"/>
</svg>
