<svg width="1523" height="540" viewBox="0 0 1523 540" fill="none" xmlns="http://www.w3.org/2000/svg">
<path d="M98.3982 2.40319C84.9315 5.20319 70.5315 11.3365 60.1315 18.4032C47.9982 26.6699 29.3315 43.7365 23.8649 51.4699C17.7315 60.2699 9.06486 77.2032 5.86486 86.6699C-4.26847 116.937 -1.20181 151.737 14.5315 182.803C25.0649 203.603 45.0649 220.937 71.8649 232.27C90.3982 240.27 96.7982 241.47 119.065 241.337C149.732 241.203 171.998 235.737 193.732 222.803L202.265 217.603L202.665 170.537L203.065 123.603H162.265H121.465V136.27L121.332 149.07L149.465 148.937L177.732 148.67L178.132 177.337L178.398 205.87L168.132 209.87C152.132 216.27 143.865 217.47 120.398 217.603C100.398 217.603 98.2649 217.337 87.1982 213.737C73.7315 209.337 58.7982 199.603 48.6649 188.537C39.7315 178.937 28.5315 156.27 26.3982 143.47C24.2649 131.337 25.3315 107.87 28.3982 94.9365C31.7315 80.9365 41.4649 63.0699 51.0649 53.4699C70.7982 33.7365 91.9982 24.5365 122.398 22.6699C141.198 21.6032 156.398 24.6699 174.798 33.2032L189.598 40.0032L195.332 33.7365C204.532 23.6032 203.865 22.4032 184.798 12.9365C164.798 3.06986 155.598 0.936527 130.398 0.136527C114.398 -0.263473 108.932 0.136527 98.3982 2.40319Z" fill="black"/>
<path d="M260.265 268.403C260.531 415.736 260.798 536.27 260.931 536.27C261.065 536.27 264.931 536.27 269.731 536.27H278.398V269.203V2.26975H274.131C271.731 2.26975 267.465 1.86975 264.798 1.46975L259.865 0.536414L260.265 268.403Z" fill="black"/>
<path d="M221.198 268.27C221.065 414.803 220.798 534.936 220.532 535.47C220.265 535.87 224.665 536.27 230.532 536.27L241.065 536.403V270.003V3.60305H233.198C228.798 3.60305 224.398 3.20305 223.332 2.80305C221.465 2.13638 221.198 31.8697 221.198 268.27Z" fill="black"/>
<path d="M334.132 45.8698C333.865 70.0032 333.865 190.27 334.132 313.203L334.398 536.937H343.732H353.065L353.198 477.203C353.465 394.803 353.465 203.87 353.332 93.8698L353.065 2.26983H343.732H334.532L334.132 45.8698Z" fill="black"/>
<path d="M298.131 269.203C297.865 415.336 297.865 535.07 297.865 535.336C297.998 535.603 302.265 536.136 307.465 536.536L316.931 537.336L316.798 270.403L316.665 3.60306H307.598H298.398L298.131 269.203Z" fill="black"/>
<path d="M369.731 370.537C369.731 456.537 369.331 529.07 368.931 531.87C368.131 536.403 368.398 536.803 372.265 537.47C374.531 538.003 392.665 538.67 412.531 539.203C446.265 539.87 449.198 539.737 459.731 537.07C484.665 530.803 506.131 515.737 515.065 498.27C516.398 495.737 519.198 491.203 521.198 488.27C523.465 485.203 526.265 478.27 527.865 471.603C530.265 462.137 530.665 457.87 529.998 445.603C529.198 428.803 526.131 418.003 518.665 405.737C513.198 396.537 495.065 378.27 486.798 373.337C483.598 371.47 481.065 369.337 481.065 368.403C481.065 367.603 485.598 363.07 491.198 358.27C499.465 351.203 502.531 347.47 508.398 336.937C516.531 322.27 518.798 313.87 518.665 296.27C518.398 270.537 507.198 250.137 484.665 234.537C463.998 220.27 456.265 218.403 411.731 216.937C392.265 216.27 374.931 215.337 373.065 214.937L369.731 214.137V370.537ZM423.065 240.937C439.198 241.87 448.398 242.937 454.531 244.803C470.665 249.87 485.998 264.003 491.598 278.937C495.465 289.07 497.465 302.803 496.531 310.537C495.465 318.003 488.665 334.27 486.531 334.27C485.865 334.27 484.131 336.137 482.798 338.403C479.998 343.203 469.598 351.203 459.998 356.137C452.265 360.003 448.265 360.27 411.731 358.67L391.065 357.87L390.665 298.803L390.265 239.603H395.331C398.131 239.603 410.665 240.27 423.065 240.937ZM455.465 384.67C460.531 386.003 468.131 389.07 472.398 391.603C483.331 398.137 495.865 410.803 500.265 419.737C508.531 436.937 509.865 464.803 502.798 479.07C497.598 489.603 485.731 503.337 475.998 509.87C462.931 518.67 453.731 520.137 419.865 518.937C404.798 518.403 392.131 517.603 391.731 517.203C391.331 516.67 391.198 485.737 391.465 448.403L391.998 380.537L419.065 381.47C437.998 382.003 448.931 383.07 455.465 384.67Z" fill="black"/>
<path d="M29.5982 257.87C29.9982 272.403 30.3982 340.803 30.3982 409.87V535.603H34.2649C36.2649 535.603 40.7982 536.003 44.2649 536.403L50.3982 537.336V389.736V242.136L44.1316 239.336C40.5316 237.87 36.1316 235.47 34.1316 234.136C32.2649 232.67 30.2649 231.603 29.5982 231.603C29.0649 231.603 29.0649 243.47 29.5982 257.87Z" fill="black"/>
<path d="M196.931 240.137C195.198 242.003 191.065 244.27 187.731 245.337L181.731 247.337V392.137V536.937H191.731H201.731V387.737C201.731 305.603 201.465 238.137 200.931 237.737C200.531 237.337 198.798 238.403 196.931 240.137Z" fill="black"/>
<path d="M69.0647 392.803C69.0647 470.67 68.798 534.803 68.5314 535.47C68.1314 536.003 72.398 536.403 77.8647 536.403L87.7314 536.27L87.4647 397.203L87.0647 258.003L80.398 255.603C76.798 254.27 72.6647 252.803 71.4647 252.27C69.198 251.336 69.0647 258.67 69.0647 392.803Z" fill="black"/>
<path d="M157.732 254.936C155.598 256.003 151.465 257.203 148.532 257.603L143.465 258.403L144.265 293.336C144.665 312.536 144.665 375.07 144.132 432.27L143.065 536.403H152.798H162.398V394.67C162.398 316.67 162.265 252.936 162.132 253.07C161.865 253.07 159.998 253.87 157.732 254.936Z" fill="black"/>
<path d="M106.531 396.537L107.065 535.337L112.931 536.137C116.131 536.537 120.131 536.937 121.865 536.937H125.065V398.27V259.603H121.865C120.131 259.603 115.865 259.203 112.398 258.67L106.131 257.87L106.531 396.537Z" fill="black"/>
<path d="M715.759 416.516C684.819 421.649 665 443.606 665 472.693C665.143 500.924 680.684 523.309 706.063 531.579C724.599 537.71 740.426 536.855 755.824 529.013C760.387 526.731 764.95 524.735 765.948 524.735C767.088 524.735 768.086 521.598 768.799 516.608C769.37 512.188 770.083 507.768 770.51 506.627C772.079 502.635 767.516 505.059 762.668 510.62C755.254 519.317 745.701 523.309 732.156 523.309C724.457 523.309 719.324 522.454 714.761 520.458C705.065 516.323 694.942 506.2 690.237 495.791C686.53 487.664 686.102 485.525 686.102 470.412V453.872L691.948 445.46C699.932 433.911 709.2 429.206 725.597 428.207C744.703 427.067 754.113 431.772 766.09 448.597L769.085 452.731L767.944 444.889C767.374 440.612 766.803 433.483 766.803 429.063L766.661 420.936L761.385 420.223C758.391 419.938 751.547 418.512 745.986 417.229C735.15 414.805 727.308 414.662 715.759 416.516Z" fill="black"/>
<path d="M1261.56 423.218C1254.43 439.9 1235.9 481.534 1231.76 489.946C1229.34 494.651 1225.63 503.634 1223.49 509.765C1221.35 515.896 1217.36 524.166 1214.94 527.873L1210.23 534.717H1226.63C1235.61 534.717 1242.88 534.146 1242.88 533.433C1242.88 532.72 1240.6 530.867 1237.75 529.156C1232.19 525.876 1232.19 525.876 1237.61 511.618L1240.6 503.634L1253.72 502.636C1260.85 502.065 1270.12 502.065 1274.25 502.636L1281.67 503.634L1285.8 512.759C1291.08 524.308 1291.08 527.16 1285.66 530.154C1283.38 531.437 1281.38 532.863 1281.38 533.291C1281.38 534.004 1311.32 534.146 1317.6 533.576C1319.88 533.291 1319.59 532.578 1315.74 528.3C1313.32 525.449 1309.47 519.46 1307.19 515.04C1303.34 507.198 1287.08 467.275 1287.08 465.279C1287.08 463.996 1266.98 417.229 1265.84 416.089C1265.41 415.518 1263.41 418.798 1261.56 423.218ZM1274.39 479.395L1278.39 489.09H1263.41C1249.73 489.09 1248.44 488.805 1249.16 486.524C1249.44 485.241 1250.3 482.532 1250.73 480.536C1251.3 478.539 1254 471.696 1256.86 465.137L1261.85 453.302L1266.12 461.572C1268.41 466.135 1272.11 474.119 1274.39 479.395Z" fill="black"/>
<path d="M1443.92 417.228C1445.06 418.654 1447.49 421.791 1449.2 423.929C1452.48 427.922 1452.48 428.207 1452.48 474.546V521.17L1448.91 526.588C1446.92 529.44 1444.49 531.864 1443.5 532.006C1442.5 532.006 1443.07 532.434 1444.64 533.004C1446.2 533.575 1463.6 533.86 1483.28 533.575L1519.06 533.147L1520.06 523.594C1520.49 518.318 1521.34 512.33 1521.77 510.049C1523.2 503.633 1519.06 505.344 1514.22 513.043C1510.22 519.459 1509.37 520.029 1503.09 520.885C1493.26 522.311 1474.15 522.168 1473.29 520.6C1472.87 520.029 1472.3 511.047 1472.01 500.638L1471.44 481.96H1484.99C1497.82 481.96 1498.96 482.245 1502.67 485.81C1504.81 487.806 1506.94 489.374 1507.23 488.947C1508.23 487.806 1509.08 464.85 1508.08 464.85C1507.51 464.85 1506.23 465.848 1505.23 466.989C1503.81 468.7 1499.96 469.128 1487.55 469.128H1471.73L1471.3 449.879L1470.73 430.631H1490.12H1509.65L1512.5 435.621C1515.93 441.324 1520.35 442.608 1518.92 437.332C1518.49 435.621 1518.07 430.06 1518.07 424.928V415.66L1495.68 416.8C1474.15 417.798 1450.77 417.228 1444.64 415.375C1442.07 414.662 1441.93 414.804 1443.92 417.228Z" fill="black"/>
<path d="M826.545 418.94C808.865 423.93 799.169 431.202 791.47 444.747C774.788 474.689 786.765 514.897 816.849 529.583C831.678 536.855 853.065 537.283 866.325 530.439C882.152 522.454 896.125 506.342 901.543 490.088C905.25 478.824 903.824 461.857 898.121 450.165C891.99 437.903 878.445 424.928 867.038 420.651C855.347 416.373 838.379 415.661 826.545 418.94ZM860.765 433.483C869.605 438.046 875.736 444.177 879.443 452.304C882.437 458.863 882.865 462 882.865 476.258C882.865 491.229 882.58 493.367 878.872 501.209C873.882 511.76 870.46 515.468 861.905 519.888C854.063 523.88 839.805 524.593 832.106 521.313C813.57 513.471 803.589 496.647 803.589 472.693C803.447 460.431 806.869 448.454 812.429 441.468C815.281 437.761 823.551 432.77 830.822 430.489C836.668 428.493 854.491 430.346 860.765 433.483Z" fill="black"/>
<path d="M920.649 417.942C920.649 418.37 921.932 419.938 923.358 421.221C925.924 423.645 926.209 426.354 926.637 465.992C927.065 513.757 927.207 514.47 939.042 525.163C948.452 533.575 966.845 537.14 981.103 533.148C988.66 531.009 999.781 520.173 1005.2 509.764L1009.62 501.209L1010.48 463.425C1011.19 426.782 1011.33 425.499 1014.47 420.936L1017.75 416.373H1003.49C989.516 416.373 986.236 417.514 991.654 420.508C993.793 421.792 994.078 425.641 994.506 463.283C994.934 503.348 994.934 505.059 991.939 511.19C986.379 522.882 972.976 526.732 960.572 520.458C946.884 513.471 944.317 501.495 945.743 453.017C946.599 424.786 946.884 421.792 949.308 420.508C954.441 417.799 951.874 417.086 936.333 417.086C927.635 417.086 920.649 417.514 920.649 417.942Z" fill="black"/>
<path d="M1038.99 421.507C1041.7 425.784 1041.84 428.778 1041.84 475.973C1041.84 525.591 1041.84 526.019 1038.71 529.013C1037 530.582 1035.14 531.865 1034.43 531.865C1033.86 531.865 1033.29 532.435 1033.29 533.291C1033.29 534.146 1039.99 534.717 1050.4 534.717C1059.81 534.717 1067.51 534.289 1067.51 533.718C1067.51 533.148 1066.22 531.295 1064.66 529.726C1060.95 525.876 1059.52 511.761 1061.09 495.649L1062.09 484.67L1068.51 485.098C1074.78 485.526 1075.06 485.811 1080.48 494.794C1095.45 520.316 1103.72 533.148 1105.58 533.861C1106.72 534.431 1112.14 534.717 1117.7 534.717H1127.68L1124.97 531.437C1103.72 504.347 1090.75 484.67 1092.46 481.961C1093.03 481.106 1094.17 480.536 1095.17 480.536C1099.16 480.536 1108.86 470.127 1113.28 461.144C1117.7 452.304 1117.84 451.592 1116.13 444.462C1113.99 434.482 1108.86 427.353 1100.73 422.505C1093.6 418.37 1095.03 418.513 1052.96 417.372L1036.28 416.944L1038.99 421.507ZM1090.46 436.193C1095.45 441.04 1096.02 442.466 1096.02 448.597C1096.02 464.852 1091.03 471.696 1078.49 472.979C1074.21 473.406 1068.36 473.406 1065.51 472.836L1060.38 471.838V458.721C1060.38 451.449 1060.81 442.181 1061.23 438.046L1062.23 430.632H1073.64C1084.9 430.632 1085.05 430.632 1090.46 436.193Z" fill="black"/>
<path d="M1138.8 426.497C1138.8 431.772 1138.37 438.046 1137.94 440.47C1136.66 447.028 1140.94 446.316 1144.36 439.329C1147.78 432.77 1149.35 432.057 1160.33 432.057H1168.74V479.109C1168.74 514.897 1168.31 526.446 1167.03 527.587C1166.03 528.442 1163.89 530.011 1162.32 531.152C1160.76 532.15 1159.76 533.433 1160.19 533.861C1160.76 534.431 1189.99 535.144 1196.4 534.859C1197.11 534.716 1196.4 533.29 1194.69 531.437C1189.13 525.448 1188.7 521.741 1188.7 476.115V432.057H1200.82H1212.94L1214.94 437.048C1217.65 443.606 1220.07 443.464 1220.07 436.62C1220.07 433.768 1220.5 428.065 1220.93 424.215L1221.78 417.086H1180.29H1138.8V426.497Z" fill="black"/>
<path d="M1364.08 417.8C1349.82 421.222 1333.57 431.488 1326.72 441.468C1314.74 458.578 1315.74 489.518 1328.72 510.05C1339.41 526.875 1356.09 534.717 1380.9 534.717C1394.45 534.574 1402 533.006 1414.27 527.302L1423.82 523.025L1424.25 502.636C1424.67 485.098 1425.1 481.819 1427.38 479.252L1429.95 476.401L1405.57 475.973L1381.19 475.545V479.395C1381.19 483.387 1381.33 483.387 1390.17 483.387C1402.72 483.387 1404.14 484.67 1405.57 498.501C1407.56 517.749 1407.56 517.464 1400.86 520.458C1392.59 524.166 1374.2 524.308 1366.22 520.601C1351.96 514.185 1339.84 491.942 1338.7 470.27C1338.13 459.434 1338.41 457.01 1341.26 451.734C1349.25 436.05 1361.94 428.778 1381.19 428.636C1397.58 428.636 1405.57 432.343 1411.98 443.179L1416.55 450.593L1417.26 440.328C1417.69 434.624 1418.54 428.208 1418.97 425.927C1419.83 422.505 1419.54 422.077 1416.69 422.077C1414.84 422.077 1408.14 420.794 1401.86 419.226C1390.03 416.374 1373.2 415.661 1364.08 417.8Z" fill="black"/>
</svg>
