<svg width="567" height="538" viewBox="0 0 567 538" fill="none" xmlns="http://www.w3.org/2000/svg">
<path d="M98.3982 2.4032C84.9315 5.2032 70.5315 11.3365 60.1315 18.4032C47.9982 26.6699 29.3315 43.7365 23.8649 51.4699C17.7315 60.2699 9.06486 77.2032 5.86486 86.6699C-4.26847 116.937 -1.20181 151.737 14.5315 182.803C25.0649 203.603 45.0649 220.937 71.8649 232.27C90.3982 240.27 96.7982 241.47 119.065 241.337C149.732 241.203 171.998 235.737 193.732 222.803L202.265 217.603L202.665 170.537L203.065 123.603H162.265H121.465V136.27L121.332 149.07L149.465 148.937L177.732 148.67L178.132 177.337L178.398 205.87L168.132 209.87C152.132 216.27 143.865 217.47 120.398 217.603C100.398 217.603 98.2649 217.337 87.1982 213.737C73.7315 209.337 58.7982 199.603 48.6649 188.537C39.7315 178.937 28.5315 156.27 26.3982 143.47C24.2649 131.337 25.3315 107.87 28.3982 94.9365C31.7315 80.9365 41.4649 63.0699 51.0649 53.4699C70.7982 33.7365 91.9982 24.5365 122.398 22.6699C141.198 21.6032 156.398 24.6699 174.798 33.2032L189.598 40.0032L195.332 33.7365C204.532 23.6032 203.865 22.4032 184.798 12.9365C164.798 3.06985 155.598 0.936523 130.398 0.13652C114.398 -0.263474 108.932 0.13652 98.3982 2.4032Z" fill="#1329A7"/>
<path d="M29.5982 257.87C29.9982 272.403 30.3982 340.803 30.3982 409.87V535.603H34.2649C36.2649 535.603 40.7982 536.003 44.2649 536.403L50.3982 537.336V389.736V242.136L44.1316 239.336C40.5316 237.87 36.1316 235.47 34.1316 234.136C32.2649 232.669 30.2649 231.603 29.5982 231.603C29.0649 231.603 29.0649 243.47 29.5982 257.87Z" fill="#1329A7"/>
<path d="M196.931 240.136C195.198 242.003 191.065 244.27 187.731 245.336L181.731 247.336V392.136V536.936H191.731H201.731V387.736C201.731 305.603 201.465 238.136 200.931 237.736C200.531 237.336 198.798 238.403 196.931 240.136Z" fill="#1329A7"/>
<path d="M69.0647 392.803C69.0647 470.669 68.798 534.803 68.5314 535.469C68.1314 536.003 72.398 536.403 77.8647 536.403L87.7314 536.269L87.4647 397.203L87.0647 258.003L80.398 255.603C76.798 254.269 72.6647 252.803 71.4647 252.269C69.198 251.336 69.0647 258.669 69.0647 392.803Z" fill="#1329A7"/>
<path d="M157.732 254.936C155.598 256.003 151.465 257.203 148.532 257.603L143.465 258.403L144.265 293.336C144.665 312.536 144.665 375.069 144.132 432.269L143.065 536.403H152.798H162.398V394.669C162.398 316.669 162.265 252.936 162.132 253.069C161.865 253.069 159.998 253.869 157.732 254.936Z" fill="#1329A7"/>
<path d="M106.531 396.536L107.065 535.336L112.931 536.136C116.131 536.536 120.131 536.936 121.865 536.936H125.065V398.27V259.603H121.865C120.131 259.603 115.865 259.203 112.398 258.67L106.131 257.87L106.531 396.536Z" fill="#1329A7"/>
<path d="M239.355 45.9633C239.622 70.1117 239.622 190.453 239.355 313.463L239.088 537.336H229.754H220.419L220.286 477.566C220.019 395.114 220.019 204.062 220.153 93.9933L220.419 2.33618L229.754 16.5117L239.355 29.0195L239.355 45.9633Z" fill="#1329A7"/>
<path d="M257.965 290.836C258.238 426.417 258.512 537.336 258.648 537.336C258.785 537.336 262.749 537.336 267.67 537.336H276.555V291.572V57.223L269.483 52.1617L262.612 47.5605L257.555 44.3362L257.965 290.836Z" fill="#1329A7"/>
<path d="M313.36 116.684C313.62 137.357 313.62 240.379 313.36 345.684L313.1 537.336H304H294.9L294.77 486.168C294.51 415.584 294.51 252.028 294.64 157.801L294.9 79.3362H304H313.36V116.684Z" fill="#1329A7"/>
<path d="M350.145 289.336C349.871 425.742 349.598 537.336 349.461 537.336C349.325 537.336 345.361 537.336 340.44 537.336H331.555V290.077V54.3014L338.627 49.2093L345.497 44.5801L350.555 41.3362L350.145 289.336Z" fill="#1329A7"/>
<path d="M368.755 46.2695C368.488 70.4028 368.488 190.669 368.755 313.603L369.022 537.336H378.355H387.688L387.822 477.603C388.088 395.203 388.088 204.27 387.955 94.2695L387.688 2.66949L378.355 16.8362L368.755 29.3362L368.755 46.2695Z" fill="#1329A7"/>
<path d="M406.208 368.332C406.208 454.332 405.808 526.865 405.408 529.665C404.608 534.198 404.875 534.598 408.741 535.265C411.008 535.798 429.141 536.465 449.008 536.998C482.741 537.665 485.675 537.532 496.208 534.865C521.141 528.598 542.608 513.532 551.541 496.065C552.875 493.532 555.675 488.998 557.675 486.065C559.941 482.998 562.741 476.065 564.341 469.398C566.741 459.932 567.141 455.665 566.475 443.398C565.675 426.598 562.608 415.798 555.141 403.532C549.675 394.332 531.541 376.065 523.275 371.132C520.075 369.265 517.541 367.132 517.541 366.198C517.541 365.398 522.075 360.865 527.675 356.065C535.941 348.998 539.008 345.265 544.875 334.732C553.008 320.065 555.275 311.665 555.141 294.065C554.875 268.332 543.675 247.932 521.141 232.332C500.475 218.065 492.741 216.198 448.208 214.732C428.741 214.065 411.408 213.132 409.541 212.732L406.208 211.932V368.332ZM459.541 238.732C475.675 239.665 484.875 240.732 491.008 242.598C507.141 247.665 522.475 261.798 528.075 276.732C531.941 286.865 533.941 300.598 533.008 308.332C531.941 315.798 525.141 332.065 523.008 332.065C522.341 332.065 520.608 333.932 519.275 336.198C516.475 340.998 506.075 348.998 496.475 353.932C488.741 357.798 484.741 358.065 448.208 356.465L427.541 355.665L427.141 296.598L426.741 237.398H431.808C434.608 237.398 447.141 238.065 459.541 238.732ZM491.941 382.465C497.008 383.798 504.608 386.865 508.875 389.398C519.808 395.932 532.341 408.598 536.741 417.532C545.008 434.732 546.341 462.598 539.275 476.865C534.075 487.398 522.208 501.132 512.475 507.665C499.408 516.465 490.208 517.932 456.341 516.732C441.275 516.198 428.608 515.398 428.208 514.998C427.808 514.465 427.675 483.532 427.941 446.198L428.475 378.332L455.541 379.265C474.475 379.798 485.408 380.865 491.941 382.465Z" fill="#1329A7"/>
</svg>
